<?xml version="1.0" encoding="UTF-8" standalone="no"?>
<!-- Created with Inkscape (http://www.inkscape.org/) -->

<svg
   xmlns:dc="http://purl.org/dc/elements/1.1/"
   xmlns:cc="http://creativecommons.org/ns#"
   xmlns:rdf="http://www.w3.org/1999/02/22-rdf-syntax-ns#"
   xmlns:svg="http://www.w3.org/2000/svg"
   xmlns="http://www.w3.org/2000/svg"
   xmlns:sodipodi="http://sodipodi.sourceforge.net/DTD/sodipodi-0.dtd"
   xmlns:inkscape="http://www.inkscape.org/namespaces/inkscape"
   width="210mm"
   height="297mm"
   viewBox="0 0 210 297"
   version="1.1"
   id="svg1486"
   inkscape:version="0.92.2 5c3e80d, 2017-08-06"
   sodipodi:docname="d4.svg">
  <defs
     id="defs1480" />
  <sodipodi:namedview
     id="base"
     pagecolor="#ffffff"
     bordercolor="#666666"
     borderopacity="1.0"
     inkscape:pageopacity="0.0"
     inkscape:pageshadow="2"
     inkscape:zoom="3.959798"
     inkscape:cx="347.10237"
     inkscape:cy="586.61943"
     inkscape:document-units="mm"
     inkscape:current-layer="layer1"
     showgrid="false"
     inkscape:measure-start="0,0"
     inkscape:measure-end="0,0"
     inkscape:window-width="1440"
     inkscape:window-height="790"
     inkscape:window-x="0"
     inkscape:window-y="1"
     inkscape:window-maximized="1" />
  <metadata
     id="metadata1483">
    <rdf:RDF>
      <cc:Work
         rdf:about="">
        <dc:format>image/svg+xml</dc:format>
        <dc:type
           rdf:resource="http://purl.org/dc/dcmitype/StillImage" />
        <dc:title></dc:title>
      </cc:Work>
    </rdf:RDF>
  </metadata>
  <g
     inkscape:label="Layer 1"
     inkscape:groupmode="layer"
     id="layer1">
    <g
       id="g2127"
       inkscape:export-xdpi="96"
       inkscape:export-ydpi="96">
      <ellipse
         ry="13.22101"
         rx="13.221011"
         cy="139.56549"
         cx="101.94659"
         id="path2031"
         style="fill:#ff9500;fill-opacity:1;stroke:#ffffff;stroke-width:0.01631244;stroke-miterlimit:4;stroke-dasharray:none;stroke-opacity:1" />
      <g
         transform="translate(30.335091,-0.53453906)"
         id="g2115">
        <g
           id="g2097">
          <path
             sodipodi:nodetypes="cccccccccc"
             inkscape:connector-curvature="0"
             id="path2088"
             d="m 62.975381,145.65863 c 0.02227,-0.7684 -0.0049,-1.38843 0.06682,-2.3052 0.690179,-2.87939 3.437452,-3.28038 4.176088,-3.37428 2.246928,-0.27637 4.264594,0.0187 5.679477,1.1693 2.094839,-0.7495 4.848569,-0.5022 6.214014,0.50114 0.317459,0.30153 0.974007,0.83663 1.236123,2.02123 l 0.06682,1.85417 c -0.05309,0.33291 -0.02013,0.62567 -0.668174,0.88534 l -16.186511,-0.0501 c -0.346822,-0.13569 -0.475861,-0.37212 -0.584654,-0.70158 z"
             style="fill:#ffffff;fill-opacity:1;stroke:#ffffff;stroke-width:0.05344583;stroke-linecap:butt;stroke-linejoin:miter;stroke-miterlimit:4;stroke-dasharray:none;stroke-opacity:1" />
          <path
             sodipodi:nodetypes="cccccscccc"
             inkscape:connector-curvature="0"
             id="path2090"
             d="m 63.942941,145.64416 9.38444,-5e-5 c 0.09266,-5.9e-4 0.137141,-0.1176 0.135834,-0.18899 0.0103,-0.66146 -0.01235,-1.6403 -0.06496,-1.98438 -0.149799,-0.86242 -0.587167,-2.73369 -4.748326,-2.83482 -1.749308,0.0189 -2.934585,0.36995 -3.711257,0.96163 -0.645254,0.49156 -1.066948,1.08239 -1.178812,1.92044 -0.0015,0.65168 -0.0222,1.33587 0.0086,1.94636 0.01731,0.0927 0.04873,0.16738 0.174503,0.17981 z"
             style="fill:#ff9500;fill-opacity:1;stroke:#ff9500;stroke-width:0.05291667;stroke-linecap:butt;stroke-linejoin:miter;stroke-miterlimit:4;stroke-dasharray:none;stroke-opacity:1" />
          <path
             sodipodi:nodetypes="cccccccc"
             inkscape:connector-curvature="0"
             id="path2092"
             d="m 73.445499,141.74628 c 0.2918,0.21471 0.588486,0.87091 0.687946,1.37135 0.123511,0.39163 0.0998,1.6686 0.09163,2.5029 l 5.291667,0.0236 c 0.08304,0.011 0.100226,-0.0658 0.118115,-0.14174 0.0177,-0.35243 0.01451,-1.66535 -0.09449,-1.98437 -0.07126,-0.26011 -0.600994,-1.77778 -3.071056,-2.008 -0.913733,-0.0951 -1.931589,-0.12555 -3.023812,0.23626 z"
             style="fill:#ff9500;fill-opacity:1;stroke:#ff9500;stroke-width:0.05291667;stroke-linecap:butt;stroke-linejoin:miter;stroke-miterlimit:4;stroke-dasharray:none;stroke-opacity:1" />
        </g>
        <ellipse
           style="fill:#ffffff;fill-opacity:1;stroke:#ffffff;stroke-width:0.05519439;stroke-miterlimit:4;stroke-dasharray:none;stroke-opacity:1"
           id="path2099"
           cx="75.508842"
           cy="137.38039"
           rx="2.7769861"
           ry="2.7980921" />
        <circle
           style="fill:#ffffff;fill-opacity:1;stroke:#ffffff;stroke-width:0.06419078;stroke-miterlimit:4;stroke-dasharray:none;stroke-opacity:1"
           id="path2101"
           cx="68.621452"
           cy="136.00352"
           r="3.2015972" />
        <circle
           style="fill:#ff9500;fill-opacity:1;stroke:#ff9500;stroke-width:0.0685293;stroke-miterlimit:4;stroke-dasharray:none;stroke-opacity:1"
           id="path2103"
           cx="68.656471"
           cy="136.00192"
           r="2.4660478" />
        <circle
           r="2.1137552"
           cy="137.39479"
           cx="75.548973"
           id="circle2105"
           style="fill:#ff9500;fill-opacity:1;stroke:#ff9500;stroke-width:0.0587394;stroke-miterlimit:4;stroke-dasharray:none;stroke-opacity:1" />
      </g>
    </g>
  </g>
</svg>
