<?xml version="1.0" encoding="UTF-8" standalone="no"?>
<!-- Created with Inkscape (http://www.inkscape.org/) -->

<svg
   xmlns:dc="http://purl.org/dc/elements/1.1/"
   xmlns:cc="http://creativecommons.org/ns#"
   xmlns:rdf="http://www.w3.org/1999/02/22-rdf-syntax-ns#"
   xmlns:svg="http://www.w3.org/2000/svg"
   xmlns="http://www.w3.org/2000/svg"
   xmlns:sodipodi="http://sodipodi.sourceforge.net/DTD/sodipodi-0.dtd"
   xmlns:inkscape="http://www.inkscape.org/namespaces/inkscape"
   width="210mm"
   height="297mm"
   viewBox="0 0 210 297"
   version="1.1"
   id="svg917"
   inkscape:export-filename="/Users/tarynwou/OneDrive - School District 43 (Coquitlam)/2018-2019 School/Digital Media 11/HTML/Assignments/City Website/d2.png"
   inkscape:export-xdpi="96"
   inkscape:export-ydpi="96"
   inkscape:version="0.92.2 5c3e80d, 2017-08-06"
   sodipodi:docname="d5.svg">
  <defs
     id="defs911" />
  <sodipodi:namedview
     id="base"
     pagecolor="#ffffff"
     bordercolor="#666666"
     borderopacity="1.0"
     inkscape:pageopacity="0.0"
     inkscape:pageshadow="2"
     inkscape:zoom="2.8"
     inkscape:cx="277.92483"
     inkscape:cy="858.92004"
     inkscape:document-units="mm"
     inkscape:current-layer="layer1"
     showgrid="false"
     inkscape:window-width="1440"
     inkscape:window-height="790"
     inkscape:window-x="0"
     inkscape:window-y="1"
     inkscape:window-maximized="1" />
  <metadata
     id="metadata914">
    <rdf:RDF>
      <cc:Work
         rdf:about="">
        <dc:format>image/svg+xml</dc:format>
        <dc:type
           rdf:resource="http://purl.org/dc/dcmitype/StillImage" />
        <dc:title></dc:title>
      </cc:Work>
    </rdf:RDF>
  </metadata>
  <g
     inkscape:label="Layer 1"
     inkscape:groupmode="layer"
     id="layer1">
    <g
       id="g1572">
      <circle
         r="13.211245"
         cy="71.304779"
         cx="73.618858"
         id="path942"
         style="fill:#c63727;fill-opacity:1;stroke:#c63727;stroke-width:0.03584402;stroke-miterlimit:4;stroke-dasharray:none;stroke-opacity:1" />
      <path
         sodipodi:nodetypes="cccccccccccccccc"
         inkscape:connector-curvature="0"
         id="path1565"
         d="m 68.457723,67.711406 c -0.08231,-0.496291 0.403771,-1.48194 0.403771,-1.48194 0.313146,-0.673642 1.201673,-1.772216 2.660535,-2.483215 0.566103,-0.321619 2.093455,-0.442782 3.335135,-0.119796 1.50538,0.324732 2.585262,1.634935 2.955492,2.363418 0.92228,2.00956 0.18699,3.430442 -0.23387,3.892112 -0.69045,0.770706 -1.4143,1.186618 -2.07134,1.904296 -0.8403,0.825407 -1.13294,1.7958 -1.33635,2.42213 -0.64545,1.701967 -2.249809,0.965388 -2.455534,-0.08352 -0.04766,-0.979989 0.24849,-1.959977 1.002264,-2.939966 0.56641,-0.652812 1.5334,-1.439149 2.33861,-2.171562 0.38674,-0.362477 1.09459,-1.904211 -0.50114,-2.839739 -1.02973,-0.440876 -1.91015,-0.416417 -2.572463,0.03341 -0.793933,0.61195 -1.007842,1.391441 -1.240175,2.108803 -0.293312,0.528518 -0.706529,0.987567 -1.59347,0.68488 -0.794102,-0.498265 -0.691465,-1.289311 -0.691465,-1.289311 z"
         style="fill:#ffffff;stroke:#ffffff;stroke-width:0.079375;stroke-linecap:butt;stroke-linejoin:miter;stroke-miterlimit:4;stroke-dasharray:none;stroke-opacity:1" />
      <ellipse
         ry="1.5451519"
         rx="1.5869129"
         cy="77.574348"
         cx="73.118721"
         id="path1567"
         style="fill:#ffffff;fill-opacity:1;stroke:#ffffff;stroke-width:0.079375;stroke-miterlimit:4;stroke-dasharray:none;stroke-opacity:1" />
    </g>
  </g>
</svg>
